<?xml version="1.0" encoding="UTF-8" standalone="no"?>
<svg
   xmlns:dc="http://purl.org/dc/elements/1.1/"
   xmlns:cc="http://creativecommons.org/ns#"
   xmlns:rdf="http://www.w3.org/1999/02/22-rdf-syntax-ns#"
   xmlns:svg="http://www.w3.org/2000/svg"
   xmlns="http://www.w3.org/2000/svg"
   xmlns:sodipodi="http://sodipodi.sourceforge.net/DTD/sodipodi-0.dtd"
   xmlns:inkscape="http://www.inkscape.org/namespaces/inkscape"
   width="256mm"
   height="256mm"
   viewBox="0 0 256 256"
   version="1.1"
   id="svg8"
   inkscape:version="1.0.1 (3bc2e813f5, 2020-09-07)"
   sodipodi:docname="trim-to-right.svg">
  <defs
     id="defs2">
    <inkscape:path-effect
       effect="fillet_chamfer"
       id="path-effect871"
       is_visible="true"
       lpeversion="1"
       satellites_param="F,0,0,1,0,11.0649,0,1 @ F,0,0,1,0,21.830133,0,1 @ F,0,0,1,0,23.968722,0,1"
       unit="px"
       method="auto"
       mode="F"
       radius="0"
       chamfer_steps="1"
       flexible="false"
       use_knot_distance="true"
       apply_no_radius="true"
       apply_with_radius="true"
       only_selected="false"
       hide_knots="false" />
  </defs>
  <sodipodi:namedview
     id="base"
     pagecolor="#ffffff"
     bordercolor="#666666"
     borderopacity="1.0"
     inkscape:pageopacity="0.0"
     inkscape:pageshadow="2"
     inkscape:zoom="0.49497475"
     inkscape:cx="369.53398"
     inkscape:cy="470.53799"
     inkscape:document-units="mm"
     inkscape:current-layer="layer1"
     inkscape:document-rotation="0"
     showgrid="false"
     showguides="false"
     inkscape:window-width="1360"
     inkscape:window-height="697"
     inkscape:window-x="-8"
     inkscape:window-y="-8"
     inkscape:window-maximized="1" />
  <metadata
     id="metadata5">
    <rdf:RDF>
      <cc:Work
         rdf:about="">
        <dc:format>image/svg+xml</dc:format>
        <dc:type
           rdf:resource="http://purl.org/dc/dcmitype/StillImage" />
        <dc:title />
      </cc:Work>
    </rdf:RDF>
  </metadata>
  <g
     inkscape:label="Layer 1"
     inkscape:groupmode="layer"
     id="layer1">
    <path
       style="fill:#000000;fill-rule:evenodd;stroke:#000000;stroke-width:0;fill-opacity:1"
       d="m 173.7597,98.88957 c -0.14431,0.50388 -0.21312,1.073875 -0.17538,1.71411 0.0673,1.14152 0.67226,2.33693 0.50994,3.49746 -0.0893,0.63838 -0.14713,0.80746 -0.22468,1.66398 0.023,1.07864 0.0554,2.1517 0.0486,3.23081 -0.015,1.31467 -0.007,2.62977 -0.006,3.94446 -2.6e-4,1.26631 -0.001,2.53243 -7.2e-4,3.79874 -0.12717,0.45204 0.12144,0.9599 0,1.41283 -0.0264,0.0983 -0.27328,0.0856 -0.33175,0.17622 -0.13488,0.20875 -0.23438,0.42892 -0.35146,0.64337 -0.0751,0.33937 -0.23714,0.67449 -0.2268,1.01802 -0.18328,0.20695 -0.37761,0.95922 -0.63672,1.65262 -0.0303,0.31098 -0.0256,0.62469 -0.0909,0.93276 -0.068,0.32072 -0.29934,0.61201 -0.40852,0.92655 -0.25761,0.74205 -0.28632,1.38066 -0.1796,2.13683 0.14707,0.85058 0.0468,1.71913 0.031,2.57503 8e-5,0.23302 0.0607,0.47036 7.2e-4,0.69918 -0.0146,0.0557 -0.24953,-0.0231 -0.28456,0.0517 -0.20177,0.43176 -0.41038,0.86461 -0.53318,1.31206 -0.20029,0.72961 -0.0549,1.07512 0.0796,1.78646 0.11573,0.24211 0.28822,0.47367 0.34724,0.72657 0.036,0.15435 -0.10407,-0.33175 -0.27681,-0.42375 -0.0129,-0.007 0.0117,0.0873 -0.0275,0.62735 -0.003,0.0461 -0.0107,0.092 -0.0162,0.13798 -0.006,0.2296 -0.0129,0.45925 -0.0197,0.68885 -0.001,1.2267 0.0174,2.45369 0.012,3.68039 -0.004,1.06018 -0.001,2.11999 -7.2e-4,3.18017 -9e-5,1.0639 -7.2e-4,2.12815 -7.2e-4,3.19205 7e-5,1.08594 0,2.17175 0,3.25769 v 3.23236 3.74137 2.07067 1.51464 H 72.276453 c -8.07249,0 -14.57136,-4.76813 -14.57136,-10.69082 v -37.41787 c 0,-5.92269 6.49887,-10.69082 14.57136,-10.69082 z"
       id="path37" />
    <path
       style="fill:#000000;fill-rule:evenodd;stroke:#000000;stroke-width:0;fill-opacity:1"
       d="m 380.37305,495.45898 c -0.009,0.0449 -0.0181,0.0899 -0.0273,0.13477 0.25494,0.99715 1.00181,2.24621 0.67774,1.4082 -0.20322,-0.52565 -0.43067,-1.02985 -0.65039,-1.54297 z"
       transform="scale(0.26458333)"
       id="path35" />
    <path
       style="fill:#000000;fill-rule:evenodd;stroke:#000000;stroke-width:0;fill-opacity:1"
       d="m 380.28125,495.24023 c 0.0313,0.0725 0.0607,0.14606 0.0918,0.21875 0.13368,-0.65401 0.26245,-1.30844 0.35742,-1.96875 0.0814,-0.56613 -0.31026,1.10167 -0.46485,1.65235 0.002,0.0299 0.0119,0.0663 0.0156,0.0976 z"
       transform="scale(0.26458333)"
       id="path33" />
    <path
       style="fill:#000000;fill-rule:evenodd;stroke:#000000;stroke-width:0;fill-opacity:1"
       d="m 166.35513,49.993565 a -10.438838,14.212867 0 0 1 6.56911,3.251306 l 63.36357,71.204389 a -8.7653232,11.934314 0 0 1 -0.27543,18.70575 l -62.44529,64.61947 a -11.720501,15.957898 0 0 1 -18.81177,-12.88562 l 0.18294,-22.03444 c 0.10219,-0.71723 0.15237,-1.4449 0.0811,-2.19522 v -3.42299 -2.82 -5.09332 -4.40098 c 0,-1.47862 5e-5,-2.95752 0,-4.43616 -3e-5,-1.44879 5.3e-4,-2.8973 5.3e-4,-4.34609 -1.2e-4,-1.43469 -0.002,-2.86991 5.3e-4,-4.30459 0.004,-1.6415 -0.009,-3.28294 -0.01,-4.92445 0.003,-0.83813 0.11718,-1.72544 0.0362,-2.55686 -0.0401,-0.41101 -0.10597,-0.81648 -0.16744,-1.22285 0.008,-0.045 0.0135,-0.0869 0.0171,-0.12735 0.37983,-1.19925 0.79101,-2.34271 0.6506,-3.78041 -0.001,-1.47461 0.10824,-2.95954 -0.0599,-4.42631 -0.008,-0.0592 -0.0113,-0.0899 -0.0165,-0.13298 0.17594,-0.83221 0.62405,-2.41306 0.44958,-3.02475 -0.40112,-0.19365 0.14121,0.12071 0.27388,-1.06875 0.1383,-1.23982 0.084,-2.5062 0.15503,-3.75649 0.004,-0.0645 0.0404,0.11921 0.0481,0.18293 0.0392,0.32664 0.10364,0.65444 0.092,0.98504 -0.012,0.33944 -0.0874,0.66781 -0.14366,0.99981 -0.006,-0.051 -0.003,-0.0843 -0.0233,0.13227 0.007,-0.0443 0.0158,-0.0881 0.0233,-0.13227 0.0128,0.10182 0.0651,0.28278 0.4253,-1.26296 0.34568,-1.48323 0.44187,-2.68141 0.38654,-4.17724 -2.7e-4,-1.72631 2.6e-4,-3.45213 5.3e-4,-5.17845 -0.002,-1.77647 -0.007,-3.55327 0.004,-5.32972 0.004,-1.38267 -0.0154,-2.75961 -0.0398,-4.140649 -0.0249,-0.867843 0.1418,-1.681993 0.16949,-2.556155 0.0616,-1.942112 -0.26005,-3.876983 -0.42788,-5.791281 l 5.3e-4,-7.21e-4 c -0.16492,-1.881144 -0.62511,-3.198751 -1.20923,-3.989377 l 0.18722,-22.509372 A -10.438838,14.212867 0 0 1 166.3552,49.993549 Z"
       id="path11" />
    <path
       style="fill:#000000;fill-rule:evenodd;stroke:#000000;stroke-width:0;fill-opacity:1"
       d="m 82.694803,19.778121 c 1.70278,0 3.07371,1.370423 3.07371,3.073197 v 26.994218 c 0,1.702774 -1.37093,3.073715 -3.07371,3.073715 H 44.074413 V 205.26292 h 38.35322 c 1.85085,0 3.34088,1.49004 3.34088,3.34088 v 26.45989 c 0,1.85084 -1.49003,3.34088 -3.34088,3.34088 h -71.89587 c -1.8508501,0 -3.3408801,-1.49004 -3.3408801,-3.34088 V 208.6038 49.845536 22.851318 c 0,-1.702774 1.37094,-3.073197 3.0737101,-3.073197 z"
       id="rect10" />
    <rect
       style="fill:#000000;fill-rule:evenodd;stroke:#000000;stroke-width:0;fill-opacity:1"
       id="rect39"
       width="15.289638"
       height="64.260941"
       x="-170.97971"
       y="67.801819"
       transform="scale(-1,1)" />
  </g>
</svg>
